<svg width="191" height="47" viewBox="0 0 191 47" fill="none" xmlns="http://www.w3.org/2000/svg">
<g clip-path="url(#clip0_2005_4508)">
<path d="M54.5825 11.3039H73.8051V16.4781H60.8595V21.0184H71.9631V25.9082H60.8595V31.3342H74.0197V36.6482H54.5825V11.3039Z" fill="white"/>
<path d="M95.7839 22.967V22.8598C98.0177 22.0114 99.3281 20.4125 99.3281 17.8953C99.3281 15.8769 98.5819 14.2454 97.127 13.0381C95.7792 11.938 93.8299 11.2994 91.2044 11.2994H78.9676V36.6436H91.4889C94.147 36.6436 96.2409 36.005 97.7285 34.835C99.3934 33.5578 100.317 31.7165 100.317 29.162C100.317 26.1507 98.5446 23.8107 95.7792 22.9576L95.7839 22.967ZM85.1792 16.2685H90.3183C92.1651 16.2685 93.3309 17.1914 93.3309 18.7857C93.3309 20.3799 92.0904 21.3401 90.281 21.3401H85.1746V16.2685H85.1792ZM90.7847 31.6186H85.1792V25.5914H90.7101C92.6267 25.5914 94.1144 26.6215 94.1144 28.6399C94.1144 30.4486 92.8366 31.6186 90.78 31.6186H90.7847Z" fill="white"/>
<path d="M104.435 11.304H112.875L115.963 22.3982C116.424 23.9925 117.417 28.1738 117.417 28.1738H117.487C117.487 28.1738 118.481 23.9925 118.905 22.3982L122.025 11.304H130.536V36.6483H124.79V23.8853C124.79 22.8551 124.898 18.8183 124.898 18.8183H124.828C124.828 18.8183 123.942 22.6127 123.657 23.531L120.006 36.6483H114.829L111.21 23.5683C110.926 22.6453 110.04 18.8183 110.04 18.8183H109.97C109.97 18.8183 110.077 22.897 110.077 23.9225V36.6483H104.439V11.304H104.435Z" fill="white"/>
<path d="M147.469 17.2008H143.505V14.8607H147.007V14.1522H143.505V12.0405H147.357V11.304H142.665V17.9746H147.469V17.2008Z" fill="white"/>
<path d="M150.882 18.0819C152.305 18.0819 153.428 17.4386 153.428 15.8257V11.3088H152.594V15.7418C152.594 16.8792 151.964 17.364 150.915 17.364C149.866 17.364 149.175 16.8792 149.175 15.7418V11.3088H148.341V15.8257C148.341 17.4386 149.437 18.0819 150.887 18.0819H150.882Z" fill="white"/>
<path d="M155.396 15.1592H157.243C158.134 15.1592 158.526 15.5041 158.591 16.483C158.666 17.6018 158.694 17.8535 158.833 17.9747H159.733V17.9374C159.612 17.8535 159.5 17.5831 159.426 16.511C159.36 15.5227 159.146 15.0566 158.47 14.8142V14.7862C159.267 14.5252 159.622 13.9472 159.622 13.1361C159.622 12.0453 158.833 11.3088 157.663 11.3088H154.562V17.9793H155.396V15.1592ZM155.396 12.0313H157.411C158.386 12.0313 158.759 12.4415 158.759 13.2526C158.759 14.0078 158.292 14.4739 157.364 14.4739H155.396V12.0267V12.0313Z" fill="white"/>
<path d="M163.641 18.1144C165.647 18.1144 166.892 16.6321 166.892 14.6323C166.892 12.6326 165.647 11.1502 163.641 11.1502C161.636 11.1502 160.391 12.6326 160.391 14.6323C160.391 16.6321 161.636 18.1144 163.641 18.1144ZM163.641 11.8821C165.204 11.8821 166.038 13.0661 166.038 14.637C166.038 16.2079 165.204 17.3826 163.641 17.3826C162.079 17.3826 161.244 16.2079 161.244 14.637C161.244 13.0661 162.079 11.8821 163.641 11.8821Z" fill="white"/>
<path d="M168.725 15.1778H170.534C171.984 15.1778 172.679 14.4413 172.679 13.22C172.679 12.7166 172.511 12.2784 172.231 11.9521C171.886 11.5419 171.35 11.3088 170.651 11.3088H167.885V17.9793H168.72V15.1778H168.725ZM168.725 12.0313H170.515C171.359 12.0313 171.854 12.4509 171.854 13.2526C171.854 14.0544 171.406 14.4926 170.469 14.4926H168.725V12.0313Z" fill="white"/>
<path d="M178.294 17.2008H174.325V14.8607H177.828V14.1522H174.325V12.0405H178.182V11.304H173.491V17.9746H178.294V17.2008Z" fill="white"/>
<path d="M180.406 15.9422H183.055L183.759 17.9746H184.669L182.216 11.304H181.278L178.835 17.9746H179.688L180.402 15.9422H180.406ZM181.437 13.0194C181.568 12.6372 181.745 12.0778 181.745 12.0778H181.763C181.763 12.0778 181.931 12.6465 182.062 13.0194L182.822 15.2569H180.649L181.437 13.0194Z" fill="white"/>
<path d="M186.166 12.4974H186.184C186.184 12.4974 186.464 13.0008 186.679 13.3271L189.724 17.9746H190.577V11.304H189.799V16.7999H189.78C189.78 16.7999 189.519 16.2871 189.295 15.9422L186.268 11.304H185.387V17.9746H186.166V12.4974Z" fill="white"/>
<path d="M147.291 26.6775C147.599 26.3512 147.776 25.9131 147.776 25.4003C147.776 24.5053 147.194 23.9646 146.438 23.7874V23.7595C147.096 23.5544 147.506 23.0975 147.506 22.361C147.506 21.8856 147.347 21.5033 147.077 21.2236C146.704 20.8321 146.177 20.6456 145.477 20.6456H142.661V27.3161H145.622C146.335 27.3161 146.914 27.0831 147.287 26.6822L147.291 26.6775ZM143.505 21.3681H145.491C146.233 21.3681 146.671 21.7597 146.671 22.403C146.671 23.0929 146.186 23.4938 145.379 23.4938H143.505V21.3681ZM143.505 26.5563V24.207H145.538C146.345 24.207 146.932 24.6172 146.932 25.4469C146.932 25.7639 146.82 26.0249 146.634 26.2207C146.41 26.4351 146.065 26.5563 145.594 26.5563H143.505Z" fill="white"/>
<path d="M153.629 25.1578V20.6409H152.794V25.0739C152.794 26.2113 152.165 26.6961 151.115 26.6961C150.066 26.6961 149.381 26.2113 149.381 25.0739V20.6409H148.546V25.1578C148.546 26.7707 149.642 27.4139 151.092 27.4139C152.542 27.4139 153.638 26.7707 153.638 25.1578H153.629Z" fill="white"/>
<path d="M155.62 20.6409H154.786V27.3114H155.62V20.6409Z" fill="white"/>
<path d="M157.719 20.6409H156.884V27.3114H161.202V26.5376H157.719V20.6409Z" fill="white"/>
<path d="M164.448 20.6409H162.033V27.3114H164.383C166.379 27.3114 167.391 25.9969 167.391 23.9971C167.391 21.9973 166.444 20.6362 164.448 20.6362V20.6409ZM164.355 26.5749H162.867V21.368H164.42C165.982 21.368 166.537 22.4309 166.537 24.0018C166.537 25.5727 165.917 26.5749 164.355 26.5749Z" fill="white"/>
<path d="M169.242 20.6409H168.407V27.3114H169.242V20.6409Z" fill="white"/>
<path d="M174.904 26.1367C174.904 26.1367 174.642 25.6239 174.419 25.279L171.392 20.6409H170.511V27.3114H171.289V21.8342H171.308C171.308 21.8342 171.588 22.3376 171.802 22.6639L174.848 27.3114H175.701V20.6409H174.922V26.1367H174.904Z" fill="white"/>
<path d="M179.875 21.2283C180.924 21.2283 181.544 21.7597 181.731 22.6454H182.594C182.379 21.3402 181.432 20.5011 179.889 20.5011C177.8 20.5011 176.694 22.0394 176.694 24.0018C176.694 25.9643 177.949 27.456 179.814 27.456C180.686 27.456 181.404 27.1203 181.885 26.4398H181.903L182.146 27.3161H182.682V23.7874H179.851V24.5146H181.847V24.6731C181.847 25.7918 181.209 26.7241 179.842 26.7241C178.476 26.7241 177.548 25.6333 177.548 24.0018C177.548 22.3703 178.271 21.2283 179.87 21.2283H179.875Z" fill="white"/>
<path d="M145.906 35.5202H145.888L143.733 29.9777H142.665V36.6483H143.416V31.1618H143.435C143.435 31.1618 143.603 31.6652 143.733 32.0008L145.552 36.6483H146.191L148.01 32.0008C148.131 31.6838 148.308 31.1618 148.308 31.1618H148.327V36.6483H149.124V29.9777H148.038L145.902 35.5202H145.906Z" fill="white"/>
<path d="M152.295 29.9777L149.852 36.6483H150.705L151.419 34.6159H154.067L154.772 36.6483H155.681L153.228 29.9777H152.291H152.295ZM151.661 33.9353L152.449 31.6978C152.58 31.3156 152.757 30.7562 152.757 30.7562H152.776C152.776 30.7562 152.944 31.3249 153.074 31.6978L153.834 33.9353H151.661Z" fill="white"/>
<path d="M155.149 30.7143H157.36V36.6483H158.195V30.7143H160.405V29.9777H155.149V30.7143Z" fill="white"/>
<path d="M162.07 33.5344H165.572V32.8259H162.07V30.7143H165.927V29.9777H161.235V36.6483H166.034V35.8745H162.07V33.5344Z" fill="white"/>
<path d="M171.882 35.1846C171.816 34.1963 171.602 33.7302 170.926 33.4878V33.4598C171.723 33.1988 172.078 32.6208 172.078 31.8097C172.078 30.7189 171.289 29.9824 170.119 29.9824H167.018V36.6529H167.852V33.8328H169.699C170.59 33.8328 170.982 34.1777 171.047 35.1566C171.122 36.2753 171.15 36.5271 171.289 36.6483H172.189V36.611C172.068 36.5271 171.956 36.2567 171.882 35.1846ZM169.82 33.1522H167.852V30.7049H169.867C170.842 30.7049 171.215 31.1151 171.215 31.9262C171.215 32.6814 170.748 33.1475 169.82 33.1475V33.1522Z" fill="white"/>
<path d="M173.943 29.9777H173.108V36.6483H173.943V29.9777Z" fill="white"/>
<path d="M177.123 29.9777L174.68 36.6483H175.533L176.247 34.6159H178.895L179.6 36.6483H180.509L178.056 29.9777H177.119H177.123ZM176.494 33.9353L177.282 31.6978C177.413 31.3156 177.59 30.7562 177.59 30.7562H177.608C177.608 30.7562 177.776 31.3249 177.907 31.6978L178.667 33.9353H176.494Z" fill="white"/>
<path d="M182.067 29.9777H181.232V36.6483H185.55V35.8745H182.067V29.9777Z" fill="white"/>
<path d="M188.628 32.7513C187.635 32.5556 186.893 32.3318 186.893 31.5767C186.893 30.8868 187.485 30.5045 188.39 30.5045C189.365 30.5045 189.98 30.98 190.097 31.9309H190.885C190.717 30.7003 190.032 29.8519 188.367 29.8519C187.019 29.8519 186.11 30.5139 186.11 31.614C186.11 32.8725 187.112 33.2082 188.283 33.4692C189.472 33.7303 190.27 33.9447 190.27 34.8583C190.27 35.6881 189.612 36.1076 188.689 36.1076C187.434 36.1076 186.749 35.5202 186.637 34.3922H185.821C185.895 35.7347 186.786 36.7788 188.651 36.7788C190.083 36.7788 191.095 36.0796 191.095 34.8304C191.095 33.3294 189.915 33.0124 188.623 32.7513H188.628Z" fill="white"/>
<path d="M20.8612 0L1.7272 11.043L7.32331 14.2733L20.8612 6.46076L34.3992 14.2733L39.9953 11.043L20.8612 0ZM36.0314 17.0982V32.7233L22.4934 40.5359V46.9967L41.6275 35.9537V13.8678L36.0314 17.0982ZM5.69111 17.0982L0.0950012 13.8678V35.9537L19.229 46.9967V40.5359L5.69111 32.7233V17.0982Z" fill="white"/>
</g>
<defs>
<clipPath id="clip0_2005_4508">
<rect width="191" height="47" fill="white"/>
</clipPath>
</defs>
</svg>
