<svg width="259" height="64" viewBox="0 0 259 64" fill="none" xmlns="http://www.w3.org/2000/svg"><g clip-path="url(#clip0_2094_4839)" fill="#fff"><path d="M74.015 15.393h26.066v7.045H82.527v6.183h15.056v6.658H82.528v7.389h17.845v7.236H74.015V15.393zm55.87 15.881v-.146c3.029-1.155 4.806-3.332 4.806-6.76 0-2.748-1.012-4.97-2.985-6.614-1.827-1.498-4.471-2.367-8.031-2.367h-16.593v34.511h16.979c3.604 0 6.444-.87 8.461-2.463 2.257-1.739 3.51-4.246 3.51-7.725 0-4.1-2.403-7.287-6.153-8.448l.006.012zm-14.38-9.12h6.969c2.504 0 4.085 1.256 4.085 3.427 0 2.17-1.682 3.478-4.136 3.478h-6.924v-6.906h.006zm7.601 20.902h-7.601v-8.208h7.5c2.599 0 4.616 1.403 4.616 4.151 0 2.463-1.733 4.056-4.521 4.056h.006zm18.509-27.663h11.446l4.187 15.107c.626 2.17 1.973 7.864 1.973 7.864h.094s1.347-5.694 1.923-7.864l4.23-15.107h11.541v34.51h-7.791V32.526c0-1.403.146-6.9.146-6.9h-.095s-1.202 5.167-1.587 6.417l-4.952 17.862h-7.019l-4.907-17.811c-.386-1.257-1.587-6.468-1.587-6.468h-.095s.145 5.554.145 6.95v17.329h-7.645V15.393h-.007zm58.356 8.029h-5.376v-3.186h4.75v-.965h-4.75v-2.876h5.224v-1.002h-6.362v9.083h6.514v-1.054zm4.628 1.2c1.929 0 3.453-.876 3.453-3.072V15.4h-1.132v6.036c0 1.549-.853 2.209-2.276 2.209-1.423 0-2.359-.66-2.359-2.21V15.4h-1.132v6.151c0 2.196 1.486 3.072 3.453 3.072h-.007zm6.122-3.98h2.504c1.208 0 1.739.47 1.828 1.803.101 1.523.139 1.866.328 2.031h1.221v-.05c-.165-.115-.316-.483-.418-1.943-.088-1.345-.379-1.98-1.296-2.31v-.038c1.081-.356 1.562-1.143 1.562-2.247 0-1.486-1.069-2.489-2.656-2.489h-4.205v9.084h1.132v-3.84zm0-4.259h2.732c1.321 0 1.827.559 1.827 1.663 0 1.029-.632 1.663-1.891 1.663h-2.668v-3.332.006zm11.18 8.284c2.719 0 4.408-2.019 4.408-4.742s-1.689-4.741-4.408-4.741c-2.719 0-4.407 2.018-4.407 4.741s1.688 4.742 4.407 4.742zm0-8.487c2.119 0 3.251 1.612 3.251 3.752 0 2.139-1.132 3.738-3.251 3.738-2.118 0-3.25-1.6-3.25-3.739s1.132-3.75 3.25-3.75zm6.893 4.488h2.454c1.966 0 2.909-1.003 2.909-2.666 0-.686-.228-1.282-.608-1.727-.467-.558-1.195-.876-2.143-.876h-3.75v9.084h1.132v-3.815h.006zm0-4.285h2.428c1.145 0 1.815.572 1.815 1.663 0 1.092-.607 1.689-1.878 1.689h-2.365v-3.352zm12.976 7.039h-5.381v-3.186h4.749v-.965h-4.749v-2.876h5.229v-1.002h-6.361v9.083h6.513v-1.054zm2.865-1.714h3.592l.955 2.768h1.233l-3.327-9.083h-1.271l-3.313 9.083h1.157l.968-2.768h.006zm1.397-3.98c.177-.52.418-1.282.418-1.282h.025s.228.775.405 1.282l1.031 3.047h-2.947l1.068-3.046zm6.413-.711h.025s.379.686.67 1.13l4.13 6.329h1.157v-9.083h-1.056v7.483h-.026s-.354-.698-.657-1.168l-4.104-6.315h-1.195v9.083h1.056v-7.459zm-52.715 19.31c.418-.444.658-1.041.658-1.74 0-1.218-.791-1.954-1.815-2.196v-.038c.892-.279 1.448-.9 1.448-1.904 0-.647-.215-1.168-.582-1.549-.506-.533-1.22-.787-2.169-.787h-3.819v9.084h4.015c.968 0 1.752-.318 2.258-.864l.006-.006zm-5.135-7.23h2.694c1.006 0 1.6.533 1.6 1.41 0 .939-.657 1.485-1.751 1.485h-2.543v-2.895zm0 7.065v-3.2h2.758c1.094 0 1.89.56 1.89 1.69 0 .43-.151.786-.404 1.053-.304.292-.772.457-1.411.457h-2.833zm13.729-1.904v-6.15h-1.132v6.036c0 1.549-.854 2.209-2.276 2.209-1.423 0-2.353-.66-2.353-2.21v-6.036h-1.132v6.151c0 2.196 1.486 3.072 3.453 3.072 1.967 0 3.453-.876 3.453-3.072h-.013zm2.7-6.151h-1.132v9.084h1.132v-9.084zm2.846 0h-1.132v9.084h5.856v-1.054h-4.724v-8.03zm9.125 0h-3.276v9.083h3.188c2.706 0 4.078-1.79 4.078-4.513s-1.283-4.576-3.99-4.576v.006zm-.126 8.08h-2.018v-7.09h2.106c2.119 0 2.871 1.447 2.871 3.587 0 2.139-.841 3.503-2.959 3.503zm6.627-8.08h-1.132v9.084h1.132v-9.084zm7.677 7.484s-.354-.698-.658-1.168l-4.104-6.316h-1.195v9.084h1.056v-7.459h.025s.38.686.671 1.13l4.129 6.329h1.157v-9.084h-1.056v7.484h-.025zm6.741-6.684c1.423 0 2.264.724 2.517 1.93h1.17c-.291-1.777-1.575-2.92-3.668-2.92-2.833 0-4.332 2.095-4.332 4.767s1.701 4.704 4.231 4.704c1.182 0 2.156-.458 2.807-1.384h.026l.329 1.193h.727v-4.805h-3.839v.99h2.707v.216c0 1.523-.866 2.793-2.719 2.793-1.853 0-3.112-1.485-3.112-3.707 0-2.222.981-3.777 3.15-3.777h.006zm-46.062 19.461h-.025l-2.922-7.547h-1.448v9.084h1.018v-7.471h.026s.227.685.404 1.142l2.467 6.329h.866l2.466-6.329c.165-.431.405-1.142.405-1.142h.025v7.47h1.081v-9.083h-1.473l-2.896 7.547h.006zm8.664-7.547l-3.314 9.084h1.157l.968-2.768h3.592l.955 2.768h1.233l-3.327-9.084h-1.271.007zm-.86 5.39l1.068-3.047c.177-.521.418-1.283.418-1.283h.025s.228.775.405 1.282l1.03 3.047h-2.946zm4.73-4.387h2.997v8.08h1.132v-8.08h2.998v-1.003h-7.127v1.003zm9.384 3.84h4.749V44.7h-4.749v-2.876H225v-1.003h-6.362v9.084h6.507V48.85h-5.375v-3.187zm13.305 2.247c-.088-1.346-.379-1.98-1.296-2.31v-.039c1.081-.355 1.562-1.142 1.562-2.247 0-1.485-1.069-2.488-2.656-2.488h-4.206v9.083h1.132v-3.84h2.505c1.207 0 1.739.47 1.827 1.803.101 1.523.139 1.866.329 2.031h1.22v-.05c-.164-.115-.316-.483-.417-1.943zm-2.795-2.768h-2.669v-3.332h2.732c1.322 0 1.828.559 1.828 1.663 0 1.028-.633 1.663-1.891 1.663v.006zm5.59-4.322h-1.132v9.084h1.132V40.82zm4.313 0l-3.314 9.084h1.158l.967-2.768h3.592l.955 2.768h1.233l-3.326-9.084h-1.271.006zm-.854 5.39l1.069-3.047c.177-.521.417-1.283.417-1.283h.026s.227.775.404 1.282l1.031 3.047h-2.947zm7.557-5.39h-1.132v9.084h5.856V48.85h-4.724v-8.03zm8.898 3.777c-1.347-.267-2.353-.572-2.353-1.6 0-.94.803-1.46 2.03-1.46 1.322 0 2.156.648 2.315 1.942h1.068c-.227-1.675-1.157-2.83-3.415-2.83-1.827 0-3.06.9-3.06 2.399 0 1.714 1.359 2.17 2.947 2.526 1.612.355 2.693.647 2.693 1.892 0 1.13-.891 1.7-2.143 1.7-1.701 0-2.631-.799-2.783-2.335h-1.106c.101 1.828 1.309 3.25 3.838 3.25 1.942 0 3.314-.952 3.314-2.654 0-2.043-1.6-2.475-3.352-2.83h.007zM28.288 0L2.342 15.037l7.589 4.399L28.288 8.798l18.358 10.638 7.588-4.399L28.288 0zM48.86 23.283v21.276L30.502 55.198v8.797l25.946-15.037V18.884l-7.589 4.399zm-41.142 0l-7.588-4.4v30.075l25.946 15.038v-8.798L7.717 44.559V23.283z"/></g><defs><clipPath id="clip0_2094_4839"><path fill="#fff" d="M0 0h259v64H0z"/></clipPath></defs></svg>