<svg width="13" height="13" viewBox="0 0 13 13" fill="none" xmlns="http://www.w3.org/2000/svg">
<path d="M11.9889 13L7.43889 8.45C7.07778 8.73889 6.6625 8.96759 6.19306 9.13611C5.72361 9.30463 5.22407 9.38889 4.69444 9.38889C3.38241 9.38889 2.27199 8.93449 1.36319 8.02569C0.454398 7.1169 0 6.00648 0 4.69444C0 3.38241 0.454398 2.27199 1.36319 1.36319C2.27199 0.454398 3.38241 0 4.69444 0C6.00648 0 7.1169 0.454398 8.02569 1.36319C8.93449 2.27199 9.38889 3.38241 9.38889 4.69444C9.38889 5.22407 9.30463 5.72361 9.13611 6.19306C8.96759 6.6625 8.73889 7.07778 8.45 7.43889L13 11.9889L11.9889 13ZM4.69444 7.94444C5.59722 7.94444 6.36458 7.62847 6.99653 6.99653C7.62847 6.36458 7.94444 5.59722 7.94444 4.69444C7.94444 3.79167 7.62847 3.02431 6.99653 2.39236C6.36458 1.76042 5.59722 1.44444 4.69444 1.44444C3.79167 1.44444 3.02431 1.76042 2.39236 2.39236C1.76042 3.02431 1.44444 3.79167 1.44444 4.69444C1.44444 5.59722 1.76042 6.36458 2.39236 6.99653C3.02431 7.62847 3.79167 7.94444 4.69444 7.94444Z" fill="white"/>
</svg>
